<?xml version="1.0" encoding="utf-8"?>
<!-- Generator: Adobe Illustrator 19.0.0, SVG Export Plug-In . SVG Version: 6.00 Build 0)  -->
<svg version="1.1" id="Layer_1" xmlns="http://www.w3.org/2000/svg" xmlns:xlink="http://www.w3.org/1999/xlink" x="0px" y="0px"
	 viewBox="-401 225 157 111" style="enable-background:new -401 225 157 111;" xml:space="preserve">
<style type="text/css">
	.st0{display:none;fill:#06283F;}
	.st1{fill:#1C75BC;}
</style>
<path class="st0" d="M-656,490.3C-656.1,490.3-656.1,490.2-656,490.3c-0.2-0.2-0.3-0.4-0.4-0.6c-0.1-0.2-0.3-0.4-0.4-0.6
	c-0.7-1.2-2.2-2.1-3.7-2.3c-5.1-7.3-10.7-14.3-16.7-20.8v-0.1c0.1-0.6,0-1.6-0.9-2.6c0,0,0,0-0.1-0.1c-0.8-0.8-1.5-1.6-2.3-2.4
	c-0.7-0.8-1.5-1.5-2.2-2.3l0,0c-1-1-2.5-1.6-4-1.6l0,0c-0.4,0-0.8,0-1.1,0.1c-1.2,0.1-8.3,0.8-12.7,2.4
	c-27.2,9.2-51.9,24.2-71.3,43.4c-0.2,0-0.5,0-0.7,0c-1.5,0-2.5,0.3-3.1,1c-4.6,4.8-8.9,9.8-12.7,14.8c-0.7,1-0.7,2.2-0.1,3.4
	c-0.9,1.2-1.8,2.5-2.7,3.8c-1.8,2.6-2.4,5.6-1.6,8.3c0.8,2.7,3,5,5.9,6.2c6.6,2.6,12.6,5.6,18.6,9.2c-0.1,1.1,0.5,2.2,1.5,3
	c0,0,0,0,0.1,0l0.9,0.6c0,0,0.1,0,0.1,0.1c0.6,0.3,1.2,0.5,1.9,0.5c1.1,0,2.2-0.5,2.8-1.5c0.1-0.1,0.1-0.2,0.2-0.3l0,0
	c1.3-1.9,2.8-3.8,4.7-6l1.1-1.4c1.6,1.1,3.4,1.6,5.4,1.6c2.6,0,5-1,6.8-2.7c1.8-1.7,2.7-4,2.6-6.3c-0.1-2-0.9-3.9-2.3-5.3
	c14.3-12.8,32.1-23,51.7-29.5c0.1,0.1,0.1,0.2,0.2,0.2c2.6,3.2,7.2,5.2,11.7,5.2c1,0,2-0.1,3-0.3c2.9-0.7,5-2.3,5.9-4.6
	c0.7-1.8,0.6-3.9-0.4-5.8c0.6-0.1,1.3-0.2,2-0.3c3.2-0.6,6.5-1.1,9.7-1.5h0.2c0.1,0,0.1,0,0.2,0c1.2-0.1,2.2-0.8,2.7-1.8
	C-655.3,492.4-655.4,491.3-656,490.3z M-770.3,527.5c-2.2,2.6-4.3,5.2-6.3,7.9c-2.4-1.1-4.7-2.2-6.9-3.1c2-2.9,4-5.6,6.2-8.4
	C-774.9,525.1-772.6,526.3-770.3,527.5z M-773.8,519.9c2.2-2.6,4.6-5.2,7-7.7c2.3,1.2,4.6,2.6,7.1,4.1c-2.4,2.3-4.8,4.7-7,7.2
	C-769.1,522.2-771.4,521-773.8,519.9z M-763,508.4c2.6-2.5,5.3-4.9,8-7.2c2.4,1.5,4.7,3,7.1,4.6c-2.8,2.2-5.4,4.4-8,6.8
	C-758.2,511.1-760.6,509.7-763,508.4z M-750.6,497.8c2.9-2.2,5.9-4.4,8.9-6.5c2.5,1.7,4.9,3.4,7.2,5.2c-3.1,1.9-6,4-8.9,6.1
	C-745.8,500.9-748.2,499.3-750.6,497.8z M-736.9,488.2c3.2-2,6.6-4,10-5.8c2.3,1.8,4.7,3.8,7.1,5.8c-3.4,1.7-6.6,3.5-9.8,5.4
	C-732.1,491.6-734.6,489.8-736.9,488.2z M-721.8,479.7c3.5-1.8,7.2-3.4,10.8-5c2.4,2.1,4.8,4.2,7,6.4c-3.6,1.4-7.2,2.9-10.8,4.6
	C-716.9,483.6-719.3,481.6-721.8,479.7z M-705.5,472.4c0.3-0.1,0.6-0.2,0.9-0.3c2.5,2.3,5.1,4.7,7.5,7.2c-0.4,0-0.8,0-1.1,0
	C-700.5,477-702.9,474.7-705.5,472.4z M-680.4,479.4c-0.2,0-0.4,0-0.6,0c-1.1-0.2-3.8-0.2-8.1-0.2c-0.3,0-0.5,0-0.8,0
	c-2.8-3-5.8-6-9.1-9.1c2.6-0.9,5.3-1.8,8-2.6c0.1,0,0.2,0,0.3,0c0.5,0,0.8,0.2,0.9,0.2c0.1,0.1,0.2,0.2,0.4,0.3
	c1.2,1.1,7.8,8.3,10.4,11.3C-679.3,479.4-679.8,479.4-680.4,479.4z"/>
<g id="icon">
	<path class="st1" d="M-336.4,308c3,2.5,2.9,6.6,0.2,9.2c-2.7,2.6-7,2.9-10,0.7c-3-2.2-3.6-6.3-0.8-9.2
		C-344.3,305.8-339.3,305.5-336.4,308z"/>
	<path class="st1" d="M-338.2,309.6c1.9,1.6,1.9,4.3,0.2,6c-1.8,1.7-4.6,2-6.6,0.5s-2.2-4.1-0.5-6
		C-343.3,308.3-340.1,308.1-338.2,309.6z"/>
	<path class="st1" d="M-339,310.4c1.5,1.2,1.5,3.2,0.2,4.5s-3.5,1.5-5,0.4s-1.7-3.1-0.3-4.5C-342.8,309.4-340.5,309.2-339,310.4z"/>
	<path class="st1" d="M-264.8,272.2c2.6,3.8,0.8,7.5-3.6,8.5s-9.9-0.8-12.7-4.2c-2.7-3.4-1.6-7.4,2.9-8.7
		C-273.5,266.4-267.4,268.4-264.8,272.2z"/>
	<path class="st1" d="M-267.7,272.8c1.7,2.4,0.6,4.9-2.3,5.6s-6.6-0.5-8.3-2.8c-1.8-2.3-1-4.8,2-5.7
		C-273.3,269.1-269.4,270.4-267.7,272.8z"/>
	<path class="st1" d="M-269,273.1c1.3,1.8,0.5,3.7-1.7,4.2s-5-0.4-6.3-2.1s-0.7-3.7,1.5-4.3C-273.2,270.3-270.3,271.3-269,273.1z"/>
	<path class="st1" d="M-356.3,302.4c-0.3,0.3-0.5,0.6-0.8,0.9c-4.3-2.5-8.8-4.8-13.6-6.9c0.3-0.3,0.5-0.6,0.8-0.9
		C-365.1,297.5-360.6,299.8-356.3,302.4z"/>
	<path class="st1" d="M-345.6,291.6c-0.3,0.3-0.6,0.5-0.9,0.8c-4.3-2.8-8.8-5.5-13.6-7.9c0.3-0.3,0.6-0.6,0.9-0.9
		C-354.4,286.1-349.9,288.8-345.6,291.6z"/>
	<path class="st1" d="M-333.4,281.7c-0.3,0.2-0.7,0.5-1,0.7c-4.3-3.1-8.8-6.1-13.5-8.9c0.3-0.3,0.7-0.6,1-0.8
		C-342.2,275.5-337.7,278.5-333.4,281.7z"/>
	<path class="st1" d="M-319.9,272.8c-0.4,0.2-0.7,0.4-1.1,0.7c-4.2-3.5-8.7-6.8-13.4-9.9c0.4-0.3,0.7-0.5,1.1-0.7
		C-328.6,265.9-324.1,269.3-319.9,272.8z"/>
	<path class="st1" d="M-305.1,265c-0.4,0.2-0.8,0.4-1.2,0.6c-4.2-3.8-8.6-7.5-13.2-11c0.4-0.2,0.8-0.4,1.2-0.7
		C-313.6,257.4-309.2,261.1-305.1,265z"/>
	<path class="st1" d="M-289,258.5c-0.4,0.2-0.9,0.3-1.3,0.5c-4.1-4.2-8.4-8.2-13-12.1c0.4-0.2,0.9-0.4,1.3-0.5
		C-297.4,250.2-293,254.3-289,258.5z"/>
	<path class="st1" d="M-282.7,256.4c-0.4,0.1-0.9,0.3-1.3,0.4c-4-4.3-8.3-8.5-12.9-12.5c0.5-0.2,0.9-0.3,1.4-0.5
		C-291,247.9-286.7,252.1-282.7,256.4z"/>
	<path class="st1" d="M-253.4,264c-0.1,0-0.1,0-0.2,0c-5.4-7.8-11.4-15.3-18.1-22.5c0.6-0.4,0.7-1,0.1-1.7c-1.5-1.6-3-3.1-4.5-4.7
		c-0.8-0.8-2.3-1.2-3.4-0.9c0,0-7.8,0.7-12.4,2.3c-28.7,9.7-52.8,25.2-71.2,43.6c0,0-2.5-0.4-3.2,0.3c-4.5,4.7-8.7,9.6-12.5,14.6
		c-0.6,0.8,0.9,2.1,0.9,2.1c-1.3,1.7-2.5,3.3-3.6,5c-3.2,4.6-1.3,9.6,3.4,11.5c7.3,2.9,14,6.3,20.3,10.2c-0.1,0.1-0.1,0.2-0.2,0.2
		c-0.5,0.7-0.3,1.5,0.4,2c0.3,0.2,0.6,0.4,0.9,0.6c0.7,0.4,1.6,0.3,2-0.4c0.1-0.1,0.1-0.2,0.2-0.3c1.5-2.1,3.1-4.1,4.8-6.1
		c0.5-0.6,1-1.2,1.5-1.8c-2.7-2.7-3-7-0.1-10.1s8.1-3.8,11.7-1.7c14.2-12.9,32.2-23.6,53.2-30.6c-2.1-3.7-0.6-7.8,4.3-9.2
		c4.9-1.5,11.4,0.4,14.9,4.1c1.1-0.2,2.2-0.4,3.4-0.6c3.3-0.6,6.6-1.1,9.9-1.5c0.1,0,0.2,0,0.3,0c1-0.1,1.5-0.9,0.9-1.8
		c-0.3-0.4-0.5-0.8-0.8-1.2C-251,264.5-252.3,263.9-253.4,264z M-268.2,254.7c1.4,1.7-2.7,2-5,1.9c-2.4-0.4-17.9-0.2-17.9,0
		c-33.6,12-59.9,32.8-76.8,56.6c-3-1.5-6.1-2.9-9.2-4.1c-0.8-0.3-1-1.2-0.5-1.9c19.6-29,52.1-54,94.1-66.4c1.1-0.3,2.6,0,3.3,0.8
		C-280,241.5-268.8,253.7-268.2,254.7z"/>
</g>
</svg>
