<?xml version="1.0" encoding="utf-8"?>
<!-- Generator: Adobe Illustrator 19.0.0, SVG Export Plug-In . SVG Version: 6.00 Build 0)  -->
<svg version="1.1" id="_x31_5minlogo" xmlns="http://www.w3.org/2000/svg" xmlns:xlink="http://www.w3.org/1999/xlink" x="0px"
	 y="0px" viewBox="-57.3 32.1 288.7 216" style="enable-background:new -57.3 32.1 288.7 216;" xml:space="preserve">
<style type="text/css">
	.st0{fill:#1C75BC;}
	.st1{fill:#FFFFFF;}
	.st2{fill:#BED73B;}
	.st3{fill:#262262;}
</style>
<path id="line_left" class="st0" d="M56.8,181.5c-13.3-30.2,9-69.3,49.8-87.3c12.4-5.4,25-8.3,37-8.8c-14.8-0.4-31,2.7-46.8,9.6
	c-43,18.9-66.9,59.3-53.3,90.2c13.3,30.1,57.2,40.1,99.3,23C105.8,219.6,68.8,208.8,56.8,181.5z"/>
<path id="line_right" class="st0" d="M199.7,113.8c-9.3-21.1-33.4-32.3-61-31.1c25.6,0.7,47.1,11.7,55.7,31.3
	c13.6,30.9-10.3,71.3-53.3,90.2c-1.1,0.5-2.1,0.9-3.2,1.3c4-1.2,7.9-2.7,11.9-4.4C190.7,183.2,213,144.1,199.7,113.8z"/>
<g id="bus">
	<path class="st0" d="M56.4,111.2c3,2.5,2.9,6.6,0.2,9.2s-7,2.9-10,0.7c-3-2.2-3.6-6.3-0.8-9.2C48.4,109.1,53.4,108.7,56.4,111.2z"
		/>
	<path class="st1" d="M54.5,112.9c1.9,1.6,1.9,4.3,0.2,6c-1.8,1.7-4.6,2-6.6,0.5s-2.2-4.1-0.5-6C49.5,111.5,52.6,111.3,54.5,112.9z"
		/>
	<path class="st0" d="M53.7,113.7c1.5,1.2,1.5,3.2,0.2,4.5s-3.5,1.5-5,0.4s-1.7-3.1-0.3-4.5C49.9,112.6,52.3,112.5,53.7,113.7z"/>
	<path class="st0" d="M128,75.4c2.6,3.8,0.8,7.5-3.6,8.5s-9.9-0.8-12.7-4.2c-2.7-3.4-1.6-7.4,2.9-8.7
		C119.2,69.6,125.4,71.7,128,75.4z"/>
	<path class="st1" d="M125.1,76.1c1.7,2.4,0.6,4.9-2.3,5.6c-2.9,0.7-6.6-0.5-8.3-2.8c-1.8-2.3-1-4.8,2-5.7
		C119.4,72.3,123.3,73.6,125.1,76.1z"/>
	<path class="st0" d="M123.7,76.4c1.3,1.8,0.5,3.7-1.7,4.2s-5-0.4-6.3-2.1c-1.3-1.7-0.7-3.7,1.5-4.3
		C119.5,73.6,122.4,74.6,123.7,76.4z"/>
	<path class="st0" d="M36.4,105.6c-0.3,0.3-0.5,0.6-0.8,0.9c-4.3-2.5-8.8-4.8-13.6-6.9c0.3-0.3,0.5-0.6,0.8-0.9
		C27.6,100.7,32.1,103.1,36.4,105.6z"/>
	<path class="st0" d="M47.2,94.9c-0.3,0.3-0.6,0.5-0.9,0.8c-4.3-2.8-8.8-5.5-13.6-7.9c0.3-0.3,0.6-0.6,0.9-0.9
		C38.3,89.3,42.9,92,47.2,94.9z"/>
	<path class="st0" d="M59.3,84.9c-0.3,0.2-0.7,0.5-1,0.7c-4.3-3.1-8.8-6.1-13.5-8.9c0.3-0.3,0.7-0.6,1-0.8
		C50.5,78.8,55,81.8,59.3,84.9z"/>
	<path class="st0" d="M72.8,76c-0.4,0.2-0.7,0.4-1.1,0.7c-4.2-3.5-8.7-6.8-13.4-9.9c0.4-0.3,0.7-0.5,1.1-0.7
		C64.1,69.2,68.6,72.5,72.8,76z"/>
	<path class="st0" d="M87.7,68.2c-0.4,0.2-0.8,0.4-1.2,0.6c-4.2-3.8-8.6-7.5-13.2-11c0.4-0.2,0.8-0.4,1.2-0.7
		C79.1,60.7,83.5,64.4,87.7,68.2z"/>
	<path class="st0" d="M103.7,61.7c-0.4,0.2-0.9,0.3-1.3,0.5C98.3,58,94,54,89.4,50.1c0.4-0.2,0.9-0.4,1.3-0.5
		C95.4,53.4,99.7,57.5,103.7,61.7z"/>
	<path class="st0" d="M110.1,59.7c-0.4,0.1-0.9,0.3-1.3,0.4c-4-4.3-8.3-8.5-12.9-12.5c0.5-0.2,0.9-0.3,1.4-0.5
		C101.8,51.1,106,55.3,110.1,59.7z"/>
	<path class="st0" d="M139.3,67.2c-0.1,0-0.1,0-0.2,0c-5.4-7.8-11.4-15.3-18.1-22.5c0.6-0.4,0.7-1,0.1-1.7c-1.5-1.6-3-3.1-4.5-4.7
		c-0.8-0.8-2.3-1.2-3.4-0.9c0,0-7.8,0.7-12.4,2.3C72.1,49.3,48,64.8,29.6,83.2c0,0-2.5-0.4-3.2,0.3c-4.5,4.7-8.7,9.6-12.5,14.6
		c-0.6,0.8,0.9,2.1,0.9,2.1c-1.3,1.7-2.5,3.3-3.6,5c-3.2,4.6-1.3,9.6,3.4,11.5c7.3,2.9,14,6.3,20.3,10.2c-0.1,0.1-0.1,0.2-0.2,0.2
		c-0.5,0.7-0.3,1.5,0.4,2c0.3,0.2,0.6,0.4,0.9,0.6c0.7,0.4,1.6,0.3,2-0.4c0.1-0.1,0.1-0.2,0.2-0.3c1.5-2.1,3.1-4.1,4.8-6.1
		c0.5-0.6,1-1.2,1.5-1.8c-2.7-2.7-3-7-0.1-10.1s8.1-3.8,11.7-1.7c14.2-12.9,32.2-23.6,53.2-30.6c-2.1-3.7-0.6-7.8,4.3-9.2
		c4.9-1.5,11.4,0.4,14.9,4.1c1.1-0.2,2.2-0.4,3.4-0.6c3.3-0.6,6.6-1.1,9.9-1.5c0.1,0,0.2,0,0.3,0c1-0.1,1.5-0.9,0.9-1.8
		c-0.3-0.4-0.5-0.8-0.8-1.2C141.7,67.7,140.4,67.1,139.3,67.2z M124.5,58c1.4,1.7-2.7,2-5,1.9c-2.4-0.4-17.9-0.2-17.9,0
		c-33.6,12-59.8,32.8-76.7,56.6c-3-1.5-6.1-2.9-9.2-4.1c-0.8-0.3-1-1.2-0.5-1.9c19.7-28.9,52.2-54,94.2-66.3c1.1-0.3,2.6,0,3.3,0.8
		C112.7,44.8,123.9,56.9,124.5,58z"/>
</g>
<g id="logo">
	<path class="st2" d="M190.9,114.3c13.2,25.6-6.6,63.8-42.1,82.1c-35.5,18.2-73.5,10.8-86.7-14.9c-13.2-25.6,5.3-62.4,40.7-80.6
		C138.3,82.6,177.7,88.6,190.9,114.3z"/>
	<g>
		<path class="st3" d="M104.4,153.8H88.7v-20c0-2.5-1.5-3.8-4.5-3.8h-7.1v-6.2h12.5c5.4,0,9.2,0.9,11.5,2.8c2.2,1.7,3.2,4.5,3.2,8.2
			v19H104.4z"/>
		<path class="st3" d="M173.4,144.3c0,6.3-5.3,9.4-15.8,9.4h-38.1v-6.4h30.1c2.3,0,3.8-0.3,4.6-0.9c0.7-0.5,1-1.5,1-2.9
			c0-1.3-0.3-2.2-1-2.7c-0.8-0.6-2.4-0.9-4.6-0.9h-30.1v-16.3h35.7v6.2H137c-1.4,0-2.4,0.1-3,0.4c-0.7,0.3-1.1,1-1.1,2
			c0,1.2,0.4,1.9,1.3,2.3c0.5,0.2,1.4,0.3,2.8,0.3h20.6c10.6,0,15.8,3.1,15.8,9.3L173.4,144.3L173.4,144.3z"/>
	</g>
	<g>
		<path class="st3" d="M103.8,174.4h-7.2v-7.5c0-0.9-0.1-1.5-0.3-1.8c-0.3-0.4-0.9-0.6-1.9-0.6h-8c-1.1,0-1.7,0.2-2,0.5
			s-0.4,0.9-0.4,1.9v2.8c0,1.8-0.5,3-1.6,3.8c-0.8,0.6-1.8,0.9-3,0.9h-2.9v-3.1h2.9c1.3,0,1.9-0.6,1.9-1.7v-9.9h15.1
			c3,0,5.1,0.5,6.2,1.6c0.8,0.8,1.2,2.2,1.2,4.1L103.8,174.4L103.8,174.4z"/>
		<path class="st3" d="M115.9,174.5h-7.7v-9.7c0-0.7-0.1-1.1-0.4-1.4c-0.4-0.4-1.1-0.5-2.3-0.5v-3h10.3v14.6H115.9z"/>
		<path class="st3" d="M144.6,168.6c0,2.2-0.6,3.8-1.7,4.6c-1.2,0.8-3.5,1.3-7,1.3H128v-3.1h5.7c0.7,0,1.2-0.1,1.5-0.4
			s0.5-0.7,0.5-1.4v-4.9c0-0.7-0.2-1.1-0.5-1.4c-0.3-0.2-0.8-0.4-1.5-0.4h-15.5v-3.1h26.2v8.8H144.6z M126.3,180.1h-7.7v-13.8h7.7
			V180.1z"/>
		<path class="st3" d="M173.7,162.8h-1.8c-1.5,0-2.3,0.7-2.3,2.1v9.5h-7.7v-7.7c0-0.9-0.2-1.4-0.5-1.7c-0.3-0.3-1-0.5-1.9-0.5h-12.3
			v-4.7h26.6v3H173.7z"/>
	</g>
	<g id="dot">
		<path class="st0" d="M222.5,135.7c0-0.2,0-0.4,0-0.5l0,0l0,0c0-1.2,0.9-2.1,2.1-2.2l0,0c1.2,0,2.1,0.9,2.2,2.1l0,0
			c0,0.2,0,0.4,0,0.6l0,0c0,1.2-0.9,2.1-2.1,2.1l0,0l0,0l0,0C223.5,137.8,222.5,136.9,222.5,135.7L222.5,135.7z M221.8,127
			c0-0.2-0.1-0.4-0.1-0.5l0,0c-0.2-1.2,0.6-2.3,1.8-2.4l0,0c1.2-0.2,2.3,0.6,2.4,1.8l0,0c0,0.2,0.1,0.4,0.1,0.6l0,0
			c0.2,1.2-0.6,2.2-1.8,2.4l0,0c-0.1,0-0.2,0-0.3,0l0,0C222.9,128.8,222,128,221.8,127L221.8,127z M219.9,118.4
			c-0.1-0.2-0.1-0.3-0.2-0.5l0,0c-0.3-1.1,0.3-2.3,1.4-2.7l0,0c1.1-0.4,2.3,0.3,2.7,1.4l0,0c0.1,0.2,0.1,0.4,0.2,0.6l0,0
			c0.3,1.1-0.3,2.3-1.4,2.6l0,0c-0.2,0.1-0.4,0.1-0.6,0.1l0,0C221,119.9,220.2,119.3,219.9,118.4L219.9,118.4z M216.8,110.2
			c-0.1-0.2-0.2-0.3-0.2-0.5l0,0c-0.5-1.1,0-2.3,1-2.8l0,0c1.1-0.5,2.3,0,2.8,1l0,0c0.1,0.2,0.2,0.4,0.2,0.5l0,0
			c0.5,1.1,0,2.3-1.1,2.8l0,0c-0.3,0.1-0.6,0.2-0.9,0.2l0,0C217.9,111.4,217.2,111,216.8,110.2L216.8,110.2z M212.7,102.4
			c-0.1-0.2-0.2-0.3-0.3-0.5l0,0c-0.6-1-0.3-2.3,0.7-2.9l0,0c1-0.6,2.3-0.3,2.9,0.7l0,0c0.1,0.2,0.2,0.3,0.3,0.5l0,0
			c0.6,1,0.3,2.3-0.7,2.9l0,0c-0.3,0.2-0.7,0.3-1.1,0.3l0,0C213.8,103.4,213.1,103,212.7,102.4L212.7,102.4z M207.8,95
			c-0.1-0.1-0.2-0.3-0.3-0.4l0,0l0,0c-0.7-0.9-0.5-2.3,0.4-3l0,0c0.9-0.7,2.3-0.5,3,0.4l0,0c0.1,0.2,0.2,0.3,0.4,0.5l0,0
			c0.7,0.9,0.5,2.3-0.4,3l0,0c-0.4,0.3-0.8,0.4-1.3,0.4l0,0C208.9,95.9,208.2,95.6,207.8,95L207.8,95z M202,88.4
			c-0.1-0.1-0.3-0.3-0.4-0.4l0,0c-0.8-0.8-0.9-2.2,0-3l0,0c0.8-0.8,2.2-0.9,3,0l0,0c0.1,0.1,0.3,0.3,0.4,0.4l0,0
			c0.8,0.8,0.8,2.2,0,3l0,0c-0.4,0.4-1,0.6-1.5,0.6l0,0C203,89.1,202.5,88.9,202,88.4L202,88.4z M195.4,82.7
			c-0.1-0.1-0.3-0.2-0.4-0.3l0,0l0,0c-0.9-0.7-1.2-2-0.5-3l0,0c0.7-0.9,2-1.2,3-0.5l0,0c0.2,0.1,0.3,0.2,0.5,0.3l0,0
			c0.9,0.7,1.1,2,0.4,3l0,0c-0.4,0.6-1.1,0.9-1.7,0.9l0,0C196.2,83.1,195.8,83,195.4,82.7L195.4,82.7z M188,78
			c-0.2-0.1-0.3-0.2-0.5-0.3l0,0c-1-0.6-1.4-1.8-0.9-2.9l0,0c0.6-1,1.8-1.4,2.9-0.9l0,0c0.2,0.1,0.3,0.2,0.5,0.3l0,0
			c1,0.6,1.4,1.9,0.8,2.9l0,0c-0.4,0.7-1.1,1.1-1.9,1.1l0,0C188.7,78.3,188.3,78.2,188,78L188,78z M180.1,74.3
			c-0.2-0.1-0.3-0.1-0.5-0.2l0,0c-1.1-0.4-1.7-1.6-1.2-2.7l0,0c0.4-1.1,1.6-1.7,2.7-1.2l0,0c0.2,0.1,0.4,0.1,0.5,0.2l0,0
			c1.1,0.4,1.6,1.7,1.2,2.7l0,0c-0.3,0.8-1.1,1.4-2,1.4l0,0C180.6,74.5,180.3,74.4,180.1,74.3L180.1,74.3z M171.7,71.7
			c-0.2,0-0.4-0.1-0.5-0.1l0,0l0,0c-1.1-0.3-1.9-1.4-1.6-2.5l0,0c0.3-1.1,1.4-1.9,2.5-1.6l0,0c0.2,0,0.4,0.1,0.6,0.1l0,0
			c1.1,0.3,1.8,1.4,1.6,2.6l0,0c-0.2,1-1.1,1.6-2.1,1.6l0,0C172,71.8,171.8,71.8,171.7,71.7L171.7,71.7z M163,70.3
			c-0.3,0-0.5,0-0.5,0l0,0c-1.2,0-2.1-1-2.1-2.2l0,0c0-1.2,1-2.1,2.2-2.1l0,0c0,0,0.2,0,0.7,0l0,0c1.2,0.1,2.1,1.1,2,2.3l0,0
			c-0.1,1.1-1,2-2.1,2l0,0C163.1,70.3,163.1,70.3,163,70.3L163,70.3z"/>
	</g>
</g>
<g id="text">
	<polygon class="st3" points="206.3,139.9 228.8,144 205.9,143.3 	"/>
	<polygon class="st3" points="201.5,110.7 215.4,106.2 202.9,113.8 	"/>
	<polygon class="st3" points="181.8,89.4 192.1,79.7 185.1,91.2 	"/>
	<g>
		<path class="st3" d="M-22.5,226.2l-2.5,15.2h-3.4l2.2-12.7H-30v-5.1h3.2v2.6H-22.5z"/>
		<path class="st3" d="M-11.2,241.4h-3.4l-2-6.8c-0.4,0-0.6,0.2-0.6,0.8v6h-3.1v-5.5c0-0.9,0.1-1.6,0.4-2.2c0.4-0.8,1-1.2,1.8-1.2
			l-2.5-6.3h3.3l2,6.2c0.3,0,0.5-0.3,0.5-0.8v-5.3h3.1v5.1c0,2.1-0.8,3.1-2.2,3.1L-11.2,241.4z"/>
		<path class="st3" d="M-2.5,241.4h-3.3v-12c0-0.5-0.2-0.7-0.7-0.7h-2.7v-2.5h3.8c1.9,0,2.9,1,2.9,2.9V241.4z"/>
		<path class="st3" d="M12.8,237.9c0,2.4-1.4,3.5-4.1,3.5H4.9c-1.3,0-2.3-0.3-3-1c-0.7-0.6-1.1-1.6-1.1-2.8v-11.5h3v11.5
			c0,0.9,0.5,1.4,1.6,1.4v-12.8h2.9V239c1.1,0,1.6-0.5,1.6-1.4v-11.5h3L12.8,237.9z"/>
		<path class="st3" d="M19.4,234.9h-3.3v-8.6h3.3V234.9z"/>
		<path class="st3" d="M29.2,241.5h-7V239h2.9v-10.2h-2.9v-2.5h6.2V239h0.9L29.2,241.5z"/>
		<path class="st3" d="M46.1,241.5h-3.3v-12.7H41v9.8c0,1.9-0.9,2.9-2.8,2.9h-1.7V239c0.3,0,0.5,0,0.6,0c0.5,0,0.7-0.2,0.7-0.7v-9.5
			h-1.2v-2.5h9.5V241.5z"/>
		<path class="st3" d="M52.7,234.9h-3.3v-8.6h3.3V234.9z"/>
		<path class="st3" d="M62,241.5h-3.3v-12c0-0.5-0.2-0.7-0.7-0.7h-2.7v-2.5h3.8c1.9,0,2.9,1,2.9,2.9V241.5z"/>
		<path class="st3" d="M68.6,241.5h-3.3v-15.2h3.3V241.5z"/>
		<path class="st3" d="M78.4,241.5h-7V239h2.9v-10.2h-2.9v-2.5h6.2V239h0.9L78.4,241.5z"/>
		<path class="st3" d="M84.4,234.9h-3.3v-8.6h3.3V234.9z"/>
		<path class="st3" d="M95.9,241.4h-8.2v-2.5h3.9c-0.2-0.4-0.4-0.8-0.6-1.2c0-0.1-0.2-0.5-0.5-1.3c-0.6-1.8-1.2-3.5-1.8-5.1
			c-0.1-0.2-0.6-1.9-1.7-5.2h3.5l1.7,6.1c0.5,0,0.7-0.3,0.7-1c0-0.6,0-1.4-0.1-2.6c-0.1-1.1-0.1-2-0.1-2.6h3.2v5.2
			c0,0.7-0.3,1.4-0.8,2c-0.6,0.6-1.2,1-1.9,1L95.9,241.4z"/>
		<path class="st3" d="M112.3,240.8L109,241l-0.8-12.7l-5,0.3l-0.2-2.5l8.2-0.5L112.3,240.8z M107.4,241.1l-3.3,0.2l-0.7-10.5
			l3.3-0.2L107.4,241.1z"/>
		<path class="st3" d="M121.6,239.7l-3.3,0.4l-1.5-11.9c-0.1-0.5-0.3-0.7-0.8-0.6l-2.7,0.3l-0.3-2.5l3.8-0.5c1.9-0.2,3,0.6,3.3,2.5
			L121.6,239.7z"/>
		<path class="st3" d="M128.1,238.6l-3.2,0.6l-2.7-15l3.2-0.6L128.1,238.6z"/>
		<path class="st3" d="M137.6,236.4l-6.9,1.7l-0.6-2.4l2.8-0.7l-2.4-10l-2.8,0.7l-0.6-2.4l6-1.4l3,12.4l0.8-0.2L137.6,236.4z"/>
		<path class="st3" d="M148.2,233.1l-3.1,1l-3.6-11.2c-0.2-0.6-0.6-0.8-1.2-0.6l-0.9,0.3l3.9,12.1l-3.1,1l-4.7-14.5l4.9-1.6
			c0.9-0.3,1.7-0.2,2.4,0.1c0.7,0.4,1.3,1,1.6,1.9L148.2,233.1z"/>
		<path class="st3" d="M159.7,228.3l-3,1.3l-5.1-11.7l-1.6,0.7l3.9,9c0.8,1.8,0.3,3-1.4,3.8l-1.6,0.7l-1-2.3
			c0.2-0.1,0.4-0.2,0.5-0.2c0.4-0.2,0.5-0.5,0.3-0.9l-3.8-8.7l-1.1,0.5l-1-2.3l8.7-3.8L159.7,228.3z"/>
		<path class="st3" d="M166.5,217l-2.8,1.7l-4.4-7.4l2.8-1.7L166.5,217z"/>
		<path class="st3" d="M176.1,218.7l-3.7,2.5l-1.4-2.1l1-0.7l-5.7-8.5l-1,0.7l-1.4-2.1l3.7-2.5L176.1,218.7z"/>
		<path class="st3" d="M181.4,210.3c0.6,0.7,0.9,1.5,0.9,2.3c0,0.9-0.3,1.6-1,2.2l-2.9,2.3l-1.5-2l1.9-1.5c0.5-0.4,0.4-0.9-0.2-1.7
			l-4.7-6c-0.5-0.6-0.9-0.7-1.4-0.4l-1.9,1.5l-1.5-2l2.9-2.2c1.5-1.2,3-0.8,4.4,1L181.4,210.3z"/>
		<path class="st3" d="M190.4,207l-2.4,2.2l-8.1-8.9c-0.3-0.3-0.6-0.4-1,0l-2,1.8l-1.7-1.8l2.8-2.6c1.4-1.3,2.8-1.2,4.1,0.2
			L190.4,207z"/>
		<path class="st3" d="M198.3,198.7l-5.6,6l-1.8-1.7l2.7-2.9c-0.4-0.1-0.9-0.2-1.3-0.4c-0.1,0-0.5-0.2-1.3-0.5
			c-1.8-0.8-3.4-1.5-4.9-2.1c-0.2-0.1-1.8-0.8-5-2.2l2.4-2.6l5.7,2.9c0.3-0.3,0.2-0.7-0.3-1.2c-0.4-0.4-1.1-0.9-1.9-1.7
			c-0.9-0.7-1.5-1.3-1.9-1.7l2.1-2.3l3.9,3.6c0.5,0.5,0.8,1.1,0.9,2c0.1,0.8-0.1,1.5-0.6,2L198.3,198.7z"/>
		<path class="st3" d="M208.3,191.8l-1.9,2.6l-15.2-11.2l1.9-2.6L208.3,191.8z"/>
		<path class="st3" d="M209,184.2l-1.8,2.7l-12.7-8.4l1.8-2.7L209,184.2z"/>
		<path class="st3" d="M213.5,176.6l-1.5,2.7l-3.1-1.5l-0.1,0.2c0.7,0.5,1.3,1,1.7,1.7c0.7,0.9,0.9,1.6,0.5,2.1l-0.2,0.4l-3.4-1.9
			c0.1-0.2,0.1-0.5,0.1-0.9c-0.2-1.3-1.1-2.5-2.7-3.4l-4.2-2.4l-0.9,1.5l-2.2-1.2l2.5-4.4l8.1,4.7
			C209.4,174.8,211.2,175.6,213.5,176.6z"/>
		<path class="st3" d="M217.5,168.6l-1.4,2.9l-10.8-5.3c-0.4-0.2-0.7-0.1-0.9,0.3l-1.2,2.5l-2.2-1.1l1.7-3.4
			c0.8-1.7,2.1-2.2,3.9-1.3L217.5,168.6z"/>
		<path class="st3" d="M222,157.4l-1.2,3.2l-7.1-0.5c-0.2,0.3,0,0.6,0.5,0.8l5.7,2.1l-1.1,2.9l-5.2-1.9c-0.8-0.3-1.5-0.7-1.9-1.2
			c-0.6-0.6-0.8-1.3-0.5-2.1l-6.7,0.1l1.2-3.1l6.5,0.2c0.1-0.3-0.1-0.6-0.6-0.8l-5-1.9l1.1-2.9l4.8,1.8c2,0.7,2.7,1.8,2.2,3.2
			L222,157.4z"/>
	</g>
	<g>
		<path class="st3" d="M-51,242.8h-0.8c-0.4-0.7-0.8-1.5-1.1-2.5s-0.4-1.9-0.4-2.7c0-0.8,0.1-1.7,0.4-2.7s0.7-1.8,1.1-2.5h0.8
			c-0.7,1.5-1.1,3.3-1.1,5.2C-52.1,239.6-51.7,241.3-51,242.8z"/>
		<path class="st3" d="M-47.1,241.2h-1.6v-5.7c0-0.2-0.1-0.3-0.3-0.3h-1.3V234h1.8c0.9,0,1.4,0.5,1.4,1.4L-47.1,241.2L-47.1,241.2z"
			/>
		<path class="st3" d="M-44.5,232.8l-0.9,3.4h-0.7l0.2-3.4H-44.5z M-42.7,232.8l-0.9,3.4h-0.7l0.2-3.4H-42.7z"/>
		<path class="st3" d="M-37.9,239.9c0,0.9-0.5,1.4-1.4,1.4H-42v-1.2h0.7l-0.7-6h1.5l0.6,6h0.2c0.2,0,0.2-0.1,0.2-0.2v-5.8h1.6V239.9
			z"/>
		<path class="st3" d="M-34.6,237.6c0,0.8-0.1,1.7-0.4,2.7c-0.3,1-0.7,1.8-1.1,2.5H-37c0.7-1.5,1.1-3.3,1.1-5.2
			c0-1.9-0.4-3.7-1.1-5.2h0.8c0.4,0.7,0.8,1.5,1.1,2.5C-34.8,235.9-34.6,236.8-34.6,237.6z"/>
	</g>
</g>
</svg>
